<mxfile host="app.diagrams.net" modified="2024-05-28T12:35:04.665Z" agent="Mozilla/5.0 (Windows NT 10.0; Win64; x64) AppleWebKit/537.36 (KHTML, like Gecko) Chrome/125.0.0.0 Safari/537.36" etag="4CXeAqqw91walR3gVh5P" version="24.4.9" type="google">
  <diagram name="페이지-1" id="APwMo4ercwLpwO4BAGX-">
    <mxGraphModel grid="1" page="1" gridSize="10" guides="1" tooltips="1" connect="1" arrows="1" fold="1" pageScale="1" pageWidth="827" pageHeight="1169" math="0" shadow="0">
      <root>
        <mxCell id="0" />
        <mxCell id="1" parent="0" />
        <mxCell id="MC3mfLILzQQwKK7_68eS-1" value="BuildingSystemData" style="swimlane;fontStyle=1;align=center;verticalAlign=middle;childLayout=stackLayout;horizontal=1;startSize=30;horizontalStack=0;resizeParent=1;resizeParentMax=0;resizeLast=0;collapsible=1;marginBottom=0;whiteSpace=wrap;html=1;" vertex="1" parent="1">
          <mxGeometry x="360" y="160" width="440" height="400" as="geometry" />
        </mxCell>
        <mxCell id="MC3mfLILzQQwKK7_68eS-2" value="- structureCategoryType : StructureCategoryType" style="text;strokeColor=none;fillColor=none;align=left;verticalAlign=middle;spacingLeft=4;spacingRight=4;overflow=hidden;rotatable=0;points=[[0,0.5],[1,0.5]];portConstraint=eastwest;whiteSpace=wrap;html=1;" vertex="1" parent="MC3mfLILzQQwKK7_68eS-1">
          <mxGeometry y="30" width="440" height="30" as="geometry" />
        </mxCell>
        <mxCell id="MC3mfLILzQQwKK7_68eS-5" value="- structureNumber : int" style="text;strokeColor=none;fillColor=none;align=left;verticalAlign=middle;spacingLeft=4;spacingRight=4;overflow=hidden;rotatable=0;points=[[0,0.5],[1,0.5]];portConstraint=eastwest;whiteSpace=wrap;html=1;" vertex="1" parent="MC3mfLILzQQwKK7_68eS-1">
          <mxGeometry y="60" width="440" height="30" as="geometry" />
        </mxCell>
        <mxCell id="MC3mfLILzQQwKK7_68eS-8" value="- gridPosition : Vector3Int" style="text;strokeColor=none;fillColor=none;align=left;verticalAlign=middle;spacingLeft=4;spacingRight=4;overflow=hidden;rotatable=0;points=[[0,0.5],[1,0.5]];portConstraint=eastwest;whiteSpace=wrap;html=1;" vertex="1" parent="MC3mfLILzQQwKK7_68eS-1">
          <mxGeometry y="90" width="440" height="30" as="geometry" />
        </mxCell>
        <mxCell id="MC3mfLILzQQwKK7_68eS-7" value="- structureObjectRotationType : StructureObjectRotationType" style="text;strokeColor=none;fillColor=none;align=left;verticalAlign=middle;spacingLeft=4;spacingRight=4;overflow=hidden;rotatable=0;points=[[0,0.5],[1,0.5]];portConstraint=eastwest;whiteSpace=wrap;html=1;" vertex="1" parent="MC3mfLILzQQwKK7_68eS-1">
          <mxGeometry y="120" width="440" height="30" as="geometry" />
        </mxCell>
        <mxCell id="MC3mfLILzQQwKK7_68eS-14" value="- isBuildingSystemOperating : bool" style="text;strokeColor=none;fillColor=none;align=left;verticalAlign=middle;spacingLeft=4;spacingRight=4;overflow=hidden;rotatable=0;points=[[0,0.5],[1,0.5]];portConstraint=eastwest;whiteSpace=wrap;html=1;" vertex="1" parent="MC3mfLILzQQwKK7_68eS-1">
          <mxGeometry y="150" width="440" height="30" as="geometry" />
        </mxCell>
        <mxCell id="MC3mfLILzQQwKK7_68eS-15" value="- buildingSystemOperationType : BuildingSystemOperationType" style="text;strokeColor=none;fillColor=none;align=left;verticalAlign=middle;spacingLeft=4;spacingRight=4;overflow=hidden;rotatable=0;points=[[0,0.5],[1,0.5]];portConstraint=eastwest;whiteSpace=wrap;html=1;" vertex="1" parent="MC3mfLILzQQwKK7_68eS-1">
          <mxGeometry y="180" width="440" height="30" as="geometry" />
        </mxCell>
        <mxCell id="MC3mfLILzQQwKK7_68eS-3" value="" style="line;strokeWidth=1;fillColor=none;align=left;verticalAlign=middle;spacingTop=-1;spacingLeft=3;spacingRight=3;rotatable=0;labelPosition=right;points=[];portConstraint=eastwest;strokeColor=inherit;" vertex="1" parent="MC3mfLILzQQwKK7_68eS-1">
          <mxGeometry y="210" width="440" height="10" as="geometry" />
        </mxCell>
        <mxCell id="MC3mfLILzQQwKK7_68eS-4" value="+ StructureCategoryType { get; set; } :&amp;nbsp;StructureCategoryType" style="text;strokeColor=none;fillColor=none;align=left;verticalAlign=middle;spacingLeft=4;spacingRight=4;overflow=hidden;rotatable=0;points=[[0,0.5],[1,0.5]];portConstraint=eastwest;whiteSpace=wrap;html=1;" vertex="1" parent="MC3mfLILzQQwKK7_68eS-1">
          <mxGeometry y="220" width="440" height="30" as="geometry" />
        </mxCell>
        <mxCell id="MC3mfLILzQQwKK7_68eS-12" value="+ StructureNumber { get; set; } :&amp;nbsp;int" style="text;strokeColor=none;fillColor=none;align=left;verticalAlign=middle;spacingLeft=4;spacingRight=4;overflow=hidden;rotatable=0;points=[[0,0.5],[1,0.5]];portConstraint=eastwest;whiteSpace=wrap;html=1;" vertex="1" parent="MC3mfLILzQQwKK7_68eS-1">
          <mxGeometry y="250" width="440" height="30" as="geometry" />
        </mxCell>
        <mxCell id="MC3mfLILzQQwKK7_68eS-11" value="+ GridPosition&amp;nbsp;{ get; set; } : Vector3Int" style="text;strokeColor=none;fillColor=none;align=left;verticalAlign=middle;spacingLeft=4;spacingRight=4;overflow=hidden;rotatable=0;points=[[0,0.5],[1,0.5]];portConstraint=eastwest;whiteSpace=wrap;html=1;" vertex="1" parent="MC3mfLILzQQwKK7_68eS-1">
          <mxGeometry y="280" width="440" height="30" as="geometry" />
        </mxCell>
        <mxCell id="MC3mfLILzQQwKK7_68eS-10" value="+ StructureObjectRotationType { get; set; } : StructureObjectRotationType" style="text;strokeColor=none;fillColor=none;align=left;verticalAlign=middle;spacingLeft=4;spacingRight=4;overflow=hidden;rotatable=0;points=[[0,0.5],[1,0.5]];portConstraint=eastwest;whiteSpace=wrap;html=1;" vertex="1" parent="MC3mfLILzQQwKK7_68eS-1">
          <mxGeometry y="310" width="440" height="30" as="geometry" />
        </mxCell>
        <mxCell id="MC3mfLILzQQwKK7_68eS-20" value="+ BuildingSystemOperationType { get; set; } :&amp;nbsp;BuildingSystemOperationType" style="text;strokeColor=none;fillColor=none;align=left;verticalAlign=middle;spacingLeft=4;spacingRight=4;overflow=hidden;rotatable=0;points=[[0,0.5],[1,0.5]];portConstraint=eastwest;whiteSpace=wrap;html=1;" vertex="1" parent="MC3mfLILzQQwKK7_68eS-1">
          <mxGeometry y="340" width="440" height="30" as="geometry" />
        </mxCell>
        <mxCell id="MC3mfLILzQQwKK7_68eS-19" value="+ IsBuildingSystemOperating { get; set; } : bool" style="text;strokeColor=none;fillColor=none;align=left;verticalAlign=middle;spacingLeft=4;spacingRight=4;overflow=hidden;rotatable=0;points=[[0,0.5],[1,0.5]];portConstraint=eastwest;whiteSpace=wrap;html=1;" vertex="1" parent="MC3mfLILzQQwKK7_68eS-1">
          <mxGeometry y="370" width="440" height="30" as="geometry" />
        </mxCell>
        <mxCell id="MC3mfLILzQQwKK7_68eS-9" value="&lt;span style=&quot;font-weight: 700;&quot;&gt;BuildingSystemData&lt;/span&gt;" style="shape=umlFrame;whiteSpace=wrap;html=1;pointerEvents=0;width=200;height=40;" vertex="1" parent="1">
          <mxGeometry x="320" y="80" width="520" height="770" as="geometry" />
        </mxCell>
        <mxCell id="eB8eJgSDr302znCIm18H-16" style="edgeStyle=orthogonalEdgeStyle;rounded=0;orthogonalLoop=1;jettySize=auto;html=1;endArrow=none;endFill=0;startArrow=diamondThin;startFill=1;" edge="1" parent="1" source="MC3mfLILzQQwKK7_68eS-13" target="eB8eJgSDr302znCIm18H-6">
          <mxGeometry relative="1" as="geometry" />
        </mxCell>
        <mxCell id="MC3mfLILzQQwKK7_68eS-13" value="BuildingSystemData" style="swimlane;fontStyle=1;align=center;verticalAlign=middle;childLayout=stackLayout;horizontal=1;startSize=30;horizontalStack=0;resizeParent=1;resizeParentMax=0;resizeLast=0;collapsible=1;marginBottom=0;whiteSpace=wrap;html=1;" vertex="1" parent="1">
          <mxGeometry x="360" y="600" width="440" height="210" as="geometry" />
        </mxCell>
        <mxCell id="MC3mfLILzQQwKK7_68eS-16" value="- isBuildingSystemOperatingObserverSubject : IObserverSubject&amp;lt;bool&amp;gt;" style="text;strokeColor=none;fillColor=none;align=left;verticalAlign=middle;spacingLeft=4;spacingRight=4;overflow=hidden;rotatable=0;points=[[0,0.5],[1,0.5]];portConstraint=eastwest;whiteSpace=wrap;html=1;" vertex="1" parent="MC3mfLILzQQwKK7_68eS-13">
          <mxGeometry y="30" width="440" height="30" as="geometry" />
        </mxCell>
        <mxCell id="MC3mfLILzQQwKK7_68eS-17" value="- buildingSystemOperationTypeObserverSubject : &lt;span style=&quot;white-space: pre;&quot;&gt;&#x9;&lt;/span&gt;&lt;span style=&quot;white-space: pre;&quot;&gt;&#x9;&lt;/span&gt;&lt;span style=&quot;white-space: pre;&quot;&gt;&#x9;&lt;/span&gt;&lt;span style=&quot;white-space: pre;&quot;&gt;&#x9;&lt;span style=&quot;white-space: pre;&quot;&gt;&#x9;&lt;/span&gt;&lt;span style=&quot;white-space: pre;&quot;&gt;&#x9;&lt;/span&gt;&lt;/span&gt;IObserverSubject&amp;lt;BuildingSystemOperationType&amp;gt;" style="text;strokeColor=none;fillColor=none;align=left;verticalAlign=middle;spacingLeft=4;spacingRight=4;overflow=hidden;rotatable=0;points=[[0,0.5],[1,0.5]];portConstraint=eastwest;whiteSpace=wrap;html=1;" vertex="1" parent="MC3mfLILzQQwKK7_68eS-13">
          <mxGeometry y="60" width="440" height="40" as="geometry" />
        </mxCell>
        <mxCell id="MC3mfLILzQQwKK7_68eS-18" value="" style="line;strokeWidth=1;fillColor=none;align=left;verticalAlign=middle;spacingTop=-1;spacingLeft=3;spacingRight=3;rotatable=0;labelPosition=right;points=[];portConstraint=eastwest;strokeColor=inherit;" vertex="1" parent="MC3mfLILzQQwKK7_68eS-13">
          <mxGeometry y="100" width="440" height="10" as="geometry" />
        </mxCell>
        <mxCell id="eB8eJgSDr302znCIm18H-22" value="+ BuildingSystemData ( )" style="text;strokeColor=none;fillColor=none;align=left;verticalAlign=middle;spacingLeft=4;spacingRight=4;overflow=hidden;rotatable=0;points=[[0,0.5],[1,0.5]];portConstraint=eastwest;whiteSpace=wrap;html=1;" vertex="1" parent="MC3mfLILzQQwKK7_68eS-13">
          <mxGeometry y="110" width="440" height="30" as="geometry" />
        </mxCell>
        <mxCell id="MC3mfLILzQQwKK7_68eS-21" value="+ IsBuildingSystemOperatingObserverSubject { get; } : IObserverSubject&amp;lt;bool&amp;gt;" style="text;strokeColor=none;fillColor=none;align=left;verticalAlign=middle;spacingLeft=4;spacingRight=4;overflow=hidden;rotatable=0;points=[[0,0.5],[1,0.5]];portConstraint=eastwest;whiteSpace=wrap;html=1;" vertex="1" parent="MC3mfLILzQQwKK7_68eS-13">
          <mxGeometry y="140" width="440" height="30" as="geometry" />
        </mxCell>
        <mxCell id="MC3mfLILzQQwKK7_68eS-22" value="+ BuildSystemTypeObserverSubject { get; } : &lt;span style=&quot;white-space: pre;&quot;&gt;&#x9;&lt;/span&gt;&lt;span style=&quot;white-space: pre;&quot;&gt;&#x9;&lt;/span&gt;&lt;span style=&quot;white-space: pre;&quot;&gt;&#x9;&lt;/span&gt;&lt;span style=&quot;white-space: pre;&quot;&gt;&#x9;&lt;/span&gt;&lt;span style=&quot;white-space: pre;&quot;&gt;&#x9;&lt;/span&gt;&lt;span style=&quot;white-space: pre;&quot;&gt;&#x9;&lt;/span&gt;IObserverSubject&amp;lt;BuildingSystemOperationType&amp;gt;" style="text;strokeColor=none;fillColor=none;align=left;verticalAlign=middle;spacingLeft=4;spacingRight=4;overflow=hidden;rotatable=0;points=[[0,0.5],[1,0.5]];portConstraint=eastwest;whiteSpace=wrap;html=1;" vertex="1" parent="MC3mfLILzQQwKK7_68eS-13">
          <mxGeometry y="170" width="440" height="40" as="geometry" />
        </mxCell>
        <mxCell id="eB8eJgSDr302znCIm18H-1" style="edgeStyle=orthogonalEdgeStyle;rounded=0;orthogonalLoop=1;jettySize=auto;html=1;endArrow=none;endFill=0;" edge="1" parent="1" source="MC3mfLILzQQwKK7_68eS-37" target="MC3mfLILzQQwKK7_68eS-15">
          <mxGeometry relative="1" as="geometry" />
        </mxCell>
        <mxCell id="MC3mfLILzQQwKK7_68eS-37" value="&lt;span style=&quot;font-weight: normal;&quot;&gt;&amp;lt;&amp;lt; Enum &amp;gt;&amp;gt;&lt;br&gt;&lt;/span&gt;BuildingSystemOperationType" style="swimlane;fontStyle=1;align=center;verticalAlign=middle;childLayout=stackLayout;horizontal=1;startSize=40;horizontalStack=0;resizeParent=1;resizeParentMax=0;resizeLast=0;collapsible=1;marginBottom=0;whiteSpace=wrap;html=1;" vertex="1" parent="1">
          <mxGeometry x="880" y="260" width="280" height="190" as="geometry" />
        </mxCell>
        <mxCell id="MC3mfLILzQQwKK7_68eS-38" value="Non" style="text;strokeColor=none;fillColor=none;align=center;verticalAlign=middle;spacingLeft=4;spacingRight=4;overflow=hidden;rotatable=0;points=[[0,0.5],[1,0.5]];portConstraint=eastwest;whiteSpace=wrap;html=1;" vertex="1" parent="MC3mfLILzQQwKK7_68eS-37">
          <mxGeometry y="40" width="280" height="30" as="geometry" />
        </mxCell>
        <mxCell id="MC3mfLILzQQwKK7_68eS-39" value="TilePlacement" style="text;strokeColor=none;fillColor=none;align=center;verticalAlign=middle;spacingLeft=4;spacingRight=4;overflow=hidden;rotatable=0;points=[[0,0.5],[1,0.5]];portConstraint=eastwest;whiteSpace=wrap;html=1;" vertex="1" parent="MC3mfLILzQQwKK7_68eS-37">
          <mxGeometry y="70" width="280" height="30" as="geometry" />
        </mxCell>
        <mxCell id="MC3mfLILzQQwKK7_68eS-49" value="TileDeletion" style="text;strokeColor=none;fillColor=none;align=center;verticalAlign=middle;spacingLeft=4;spacingRight=4;overflow=hidden;rotatable=0;points=[[0,0.5],[1,0.5]];portConstraint=eastwest;whiteSpace=wrap;html=1;" vertex="1" parent="MC3mfLILzQQwKK7_68eS-37">
          <mxGeometry y="100" width="280" height="30" as="geometry" />
        </mxCell>
        <mxCell id="MC3mfLILzQQwKK7_68eS-48" value="StructurePlacement" style="text;strokeColor=none;fillColor=none;align=center;verticalAlign=middle;spacingLeft=4;spacingRight=4;overflow=hidden;rotatable=0;points=[[0,0.5],[1,0.5]];portConstraint=eastwest;whiteSpace=wrap;html=1;" vertex="1" parent="MC3mfLILzQQwKK7_68eS-37">
          <mxGeometry y="130" width="280" height="30" as="geometry" />
        </mxCell>
        <mxCell id="MC3mfLILzQQwKK7_68eS-47" value="StructureDeletion" style="text;strokeColor=none;fillColor=none;align=center;verticalAlign=middle;spacingLeft=4;spacingRight=4;overflow=hidden;rotatable=0;points=[[0,0.5],[1,0.5]];portConstraint=eastwest;whiteSpace=wrap;html=1;" vertex="1" parent="MC3mfLILzQQwKK7_68eS-37">
          <mxGeometry y="160" width="280" height="30" as="geometry" />
        </mxCell>
        <mxCell id="eB8eJgSDr302znCIm18H-4" style="edgeStyle=orthogonalEdgeStyle;rounded=0;orthogonalLoop=1;jettySize=auto;html=1;endArrow=none;endFill=0;startArrow=diamondThin;startFill=1;" edge="1" parent="1" source="MC3mfLILzQQwKK7_68eS-60" target="eB8eJgSDr302znCIm18H-3">
          <mxGeometry relative="1" as="geometry" />
        </mxCell>
        <mxCell id="MC3mfLILzQQwKK7_68eS-60" value="&lt;span style=&quot;font-weight: 700;&quot;&gt;BuildingSystemData&lt;/span&gt;" style="html=1;whiteSpace=wrap;" vertex="1" parent="1">
          <mxGeometry x="410" y="-120" width="200" height="40" as="geometry" />
        </mxCell>
        <mxCell id="eB8eJgSDr302znCIm18H-3" value="&lt;span style=&quot;font-weight: 700;&quot;&gt;IObserverSubject&amp;lt;ObserverDataType&amp;gt;&lt;/span&gt;" style="html=1;whiteSpace=wrap;" vertex="1" parent="1">
          <mxGeometry x="90" y="-120" width="240" height="40" as="geometry" />
        </mxCell>
        <mxCell id="eB8eJgSDr302znCIm18H-6" value="IObserverSubject&amp;lt;ObserverDataType&amp;gt;" style="swimlane;fontStyle=1;align=center;verticalAlign=middle;childLayout=stackLayout;horizontal=1;startSize=30;horizontalStack=0;resizeParent=1;resizeParentMax=0;resizeLast=0;collapsible=1;marginBottom=0;whiteSpace=wrap;html=1;" vertex="1" parent="1">
          <mxGeometry x="-120" y="615" width="400" height="180" as="geometry" />
        </mxCell>
        <mxCell id="eB8eJgSDr302znCIm18H-12" value="+ RegisterObserver(&amp;nbsp;subscriber : IObserverSubscriber)&amp;nbsp;:&amp;nbsp;void" style="text;strokeColor=none;fillColor=none;align=left;verticalAlign=middle;spacingLeft=4;spacingRight=4;overflow=hidden;rotatable=0;points=[[0,0.5],[1,0.5]];portConstraint=eastwest;whiteSpace=wrap;html=1;" vertex="1" parent="eB8eJgSDr302znCIm18H-6">
          <mxGeometry y="30" width="400" height="30" as="geometry" />
        </mxCell>
        <mxCell id="eB8eJgSDr302znCIm18H-21" value="+ RemoveObserver(&amp;nbsp;subscriber : IObserverSubscriber)&amp;nbsp;:&amp;nbsp;void" style="text;strokeColor=none;fillColor=none;align=left;verticalAlign=middle;spacingLeft=4;spacingRight=4;overflow=hidden;rotatable=0;points=[[0,0.5],[1,0.5]];portConstraint=eastwest;whiteSpace=wrap;html=1;" vertex="1" parent="eB8eJgSDr302znCIm18H-6">
          <mxGeometry y="60" width="400" height="30" as="geometry" />
        </mxCell>
        <mxCell id="eB8eJgSDr302znCIm18H-18" value="+ NotifySubscribers( )&amp;nbsp;:&amp;nbsp;void" style="text;strokeColor=none;fillColor=none;align=left;verticalAlign=middle;spacingLeft=4;spacingRight=4;overflow=hidden;rotatable=0;points=[[0,0.5],[1,0.5]];portConstraint=eastwest;whiteSpace=wrap;html=1;" vertex="1" parent="eB8eJgSDr302znCIm18H-6">
          <mxGeometry y="90" width="400" height="30" as="geometry" />
        </mxCell>
        <mxCell id="eB8eJgSDr302znCIm18H-20" value="+ UpdateObserverData(&amp;nbsp;observerData : ObserverDataType )&amp;nbsp;:&amp;nbsp;void" style="text;strokeColor=none;fillColor=none;align=left;verticalAlign=middle;spacingLeft=4;spacingRight=4;overflow=hidden;rotatable=0;points=[[0,0.5],[1,0.5]];portConstraint=eastwest;whiteSpace=wrap;html=1;" vertex="1" parent="eB8eJgSDr302znCIm18H-6">
          <mxGeometry y="120" width="400" height="30" as="geometry" />
        </mxCell>
        <mxCell id="eB8eJgSDr302znCIm18H-17" value="+ GetObserverData( )&amp;nbsp;:&amp;nbsp;ObserverDataType" style="text;strokeColor=none;fillColor=none;align=left;verticalAlign=middle;spacingLeft=4;spacingRight=4;overflow=hidden;rotatable=0;points=[[0,0.5],[1,0.5]];portConstraint=eastwest;whiteSpace=wrap;html=1;" vertex="1" parent="eB8eJgSDr302znCIm18H-6">
          <mxGeometry y="150" width="400" height="30" as="geometry" />
        </mxCell>
      </root>
    </mxGraphModel>
  </diagram>
</mxfile>
